<?xml version="1.0" encoding="UTF-8" standalone="no"?>
<svg
   xmlns:dc="http://purl.org/dc/elements/1.1/"
   xmlns:cc="http://creativecommons.org/ns#"
   xmlns:rdf="http://www.w3.org/1999/02/22-rdf-syntax-ns#"
   xmlns:svg="http://www.w3.org/2000/svg"
   xmlns="http://www.w3.org/2000/svg"
   id="svg45"
   viewBox="0 0 10416.667 4166.6667"
   style="clip-rule:evenodd;fill-rule:evenodd;image-rendering:optimizeQuality;shape-rendering:geometricPrecision;text-rendering:geometricPrecision"
   version="1.1"
   height="400"
   width="1000"
   xml:space="preserve"><metadata
   id="metadata49"><rdf:RDF><cc:Work
       rdf:about=""><dc:format>image/svg+xml</dc:format><dc:type
         rdf:resource="http://purl.org/dc/dcmitype/StillImage" /><dc:title></dc:title></cc:Work></rdf:RDF></metadata>
 <defs
   id="defs4">
  <style
   id="style2"
   type="text/css">
   <![CDATA[
    .fil0 {fill:black}
    .fil1 {fill:#050101}
    .fil2 {fill:#787677}
    .fil3 {fill:#99999A}
    .fil4 {fill:#C9CACA}
    .fil5 {fill:#F4F5F6}
    .fil6 {fill:black;fill-rule:nonzero}
   ]]>
  </style>
 </defs>
 <g
   transform="matrix(1.3997133,0,0,1.3997133,-740.44809,-4570.2038)"
   id="Layer_x0020_1">
  <metadata
   id="CorelCorpID_0Corel-Layer" />
  <g
   id="_1268509488">
   <g
   id="g39">
    <path
   style="fill:#000000"
   id="path7"
   d="m 7971,5122 v 51 l -102,477 H 6172 v -52 c 51,0 121,0 166,-14 61,-20 62,-28 98,-76 29,-39 17,-258 17,-319 0,-110 0,-220 0,-331 0,-218 -5,-441 -2,-659 l -7,-41 -4,-11 c -19,-29 -15,-28 -42,-49 l -9,-6 -11,-5 -42,-16 -23,-4 -28,-4 -107,-3 -2,-41 h 1636 v 477 l -53,2 -5,-22 -24,-73 -4,-12 -6,-13 -4,-13 -31,-63 c 0,-11 3,-8 -8,-8 -7,-4 -20,-23 -27,-31 -39,-48 -118,-91 -178,-111 -77,-25 -122,-28 -199,-34 h -346 v 652 c 55,0 128,-5 176,-20 208,-64 210,-301 231,-359 18,-7 43,-4 63,-4 0,262 -3,552 1,813 0,21 5,40 -12,46 -14,5 -40,1 -52,-3 -5,-13 -19,-101 -39,-158 -15,-42 -46,-87 -75,-122 -70,-83 -185,-95 -293,-95 0,175 1,349 0,523 -1,80 22,142 110,154 74,11 236,10 311,-1 157,-25 196,-30 337,-118 129,-80 165,-209 214,-304 z m -144,341 -4,11 -11,26 -4,11 -6,14 -4,11 -5,12 c -4,21 1,5 -8,11 l -4,19 -5,10 c -24,16 -125,6 -161,6 -39,0 -141,4 -167,-4 l 106,-9 26,-4 30,-6 50,-17 11,-5 10,-4 12,-5 10,-5 9,-6 9,-6 7,-3 10,-6 14,-12 c 15,-13 30,-23 48,-39 17,-15 29,-29 45,-44 z m -621,-677 43,-16 10,-5 17,-9 8,-7 5,-5 6,-5 20,-19 5,-7 13,-10 c 10,38 10,174 1,210 l -14,-9 -4,-6 -4,-6 -6,-4 -6,-4 -6,-5 -5,-5 -8,-6 c -9,0 -8,3 -8,-5 l -9,-5 c -10,0 -6,2 -6,-10 v 5 l -14,-5 -11,-5 -47,-16 -25,-5 -118,-15 c 54,-8 108,-7 163,-21 z m 564,-678 c -9,21 -5,42 -5,67 -20,-14 -63,-75 -126,-92 -24,-7 -11,-8 -29,-1 l -59,-11 c -63,-4 -113,-11 -179,-11 -178,0 -387,-4 -557,0 v 1124 c 0,62 -15,314 29,347 l 21,21 5,5 10,5 10,5 c 17,5 4,1 11,11 l 10,8 -336,2 c 16,-24 31,-18 46,-58 11,-28 23,-62 11,-92 1,-219 4,-438 4,-658 0,-120 13,-562 -19,-645 l -16,-33 -4,-8 c -17,-25 -22,-14 -34,-32 22,-17 271,-5 297,-5 106,0 868,-7 903,1 z"
   class="fil0" />
    <path
   style="fill:#050101"
   id="path9"
   d="m 2013,4356 c 18,-12 37,-9 61,-14 l 7,-638 -36,10 c -28,-9 -102,27 -128,38 -40,16 -85,33 -124,52 -30,14 -223,105 -240,107 5,-13 9,-14 24,-23 12,-6 22,-12 33,-19 108,-65 227,-116 344,-163 21,-8 135,-46 142,-54 9,-12 -12,-6 14,-10 l 10,-4 -39,-21 1,-195 -74,7 c -24,-8 -106,0 -135,4 -60,8 -60,-3 -113,33 l -530,350 c -115,75 -234,161 -351,232 -101,62 -172,114 -265,176 -25,16 -76,35 -85,65 69,0 138,-9 207,-10 l 155,-11 c 24,0 31,-4 52,-5 71,-4 141,-7 212,-10 l 100,-9 c 19,-3 35,-2 55,-2 21,0 36,-4 51,-4 18,20 68,134 85,168 l 78,161 c 9,15 -6,-9 4,6 1,1 2,2 2,3 1,0 2,2 3,3 13,-5 7,-4 20,-22 118,-162 445,-194 460,-201 z"
   class="fil1" />
    <path
   style="fill:#050101"
   id="path11"
   d="m 5758,4380 c 21,29 28,70 42,105 l 31,-1 -3,-128 c 9,-49 -3,-265 -3,-347 -76,-3 -28,56 -99,63 -59,5 -224,-79 -393,-93 -161,-13 -361,59 -465,185 -110,132 -156,332 -51,482 180,259 644,255 781,517 86,165 29,349 -136,434 -158,80 -367,48 -499,-67 -104,-91 -142,-166 -196,-291 -23,-55 -11,-96 -74,-91 0,55 -6,482 -2,493 53,23 45,-39 102,-51 74,-16 212,69 388,89 185,21 377,8 538,-94 136,-87 240,-248 229,-414 -13,-190 -109,-291 -262,-386 -219,-136 -820,-234 -681,-577 97,-238 465,-240 634,-33 62,76 74,127 119,205 z"
   class="fil1" />
    <path
   style="fill:#050101"
   id="path13"
   d="m 2363,3393 c -16,9 -28,10 -48,11 11,49 2,124 6,179 l 18,-3 c 21,8 166,-26 244,-26 26,0 37,-7 61,-6 l 121,14 c 21,4 39,5 45,28 -25,34 -117,-11 -224,4 -27,4 -71,3 -118,11 -22,3 -97,13 -112,21 -25,19 -68,4 -91,41 6,31 31,31 57,44 l 14,575 c 18,-7 110,-106 179,-135 37,2 176,-121 373,-111 49,3 93,22 139,26 -1,-40 -60,-130 -77,-171 -19,-50 -67,-124 -78,-170 14,-19 277,-182 322,-212 l 286,-184 c 43,-28 31,-12 33,-34 l -792,66 c -45,6 -337,25 -358,32 z"
   class="fil1" />
    <path
   style="fill:#050101"
   id="path15"
   d="m 2572,5604 c -291,0 -519,-113 -655,-375 -107,-205 -106,-526 -17,-749 10,-23 39,-70 41,-87 -7,-29 -237,43 -331,118 -41,33 -43,54 -73,86 -91,93 -54,405 -13,538 43,138 157,286 275,367 279,192 728,236 1047,127 164,-56 273,-145 339,-308 8,-21 35,-111 34,-129 -1,-18 -13,-42 -33,-27 -25,19 -18,144 -134,272 -112,124 -320,167 -480,167 z"
   class="fil1" />
    <path
   style="fill:#050101"
   id="path17"
   d="m 3773,5231 c 0,-11 -3,-8 7,-8 l 10,-6 49,-24 11,-5 11,-5 13,-7 11,-5 34,-14 11,-7 12,-5 10,-4 22,-10 11,-5 19,-11 10,-6 9,-6 8,-2 26,-16 17,-13 7,-4 12,-6 c 5,45 9,234 -6,265 -10,93 -24,152 -91,221 -142,144 -382,51 -351,-134 20,-123 112,-159 128,-183 z m -27,-611 c -85,8 -258,24 -304,110 -63,115 143,192 209,85 41,-67 75,-190 242,-166 128,19 181,105 193,227 26,275 -249,236 -506,323 -250,84 -265,379 1,451 103,28 256,26 354,-18 56,-25 82,-43 130,-79 42,-32 57,34 105,66 87,58 238,67 332,21 22,-11 115,-83 77,-109 -34,-23 -39,60 -145,58 -146,-4 -124,-190 -124,-291 0,-139 2,-280 0,-419 -2,-139 -67,-183 -192,-223 -127,-40 -239,-49 -372,-36 z"
   class="fil1" />
    <path
   style="fill:#787677"
   id="path19"
   d="m 2008,3429 74,-7 -1,195 39,21 -10,4 c -26,4 -5,-2 -14,10 25,0 12,3 14,-10 l 18,8 c -3,53 -42,25 -80,61 -1,0 -2,2 -3,3 l 36,-10 -7,638 c -24,5 -43,2 -61,14 26,0 36,-5 57,-5 0,159 -5,311 -5,471 h 16 c 0,-60 36,-189 36,-243 h 5 c 0,83 11,159 11,243 h 15 c 0,-25 3,-32 5,-52 2,-23 1,-35 4,-58 l 17,-113 c 0,48 15,163 21,223 2,29 7,23 10,26 l 67,-259 c 15,16 33,88 48,122 23,53 7,32 25,38 v -289 c 0,-114 -35,-153 43,-211 l 127,-98 c -69,29 -161,128 -179,135 l -14,-575 c -26,-13 -51,-13 -57,-44 23,-37 66,-22 91,-41 -55,0 -10,11 -32,-30 20,-8 8,2 15,-16 l -18,3 c -4,-55 5,-130 -6,-179 20,-1 32,-2 48,-11 -128,0 -25,-17 -194,-15 -25,0 -63,6 -82,21 -10,8 -16,18 -32,20 -50,5 -33,-11 -47,10 z"
   class="fil2" />
    <path
   style="fill:#050101"
   id="path21"
   d="m 2770,4067 c 10,16 138,67 237,196 32,42 55,90 79,138 16,31 54,132 76,147 l 31,-1 c 0,-44 0,-89 0,-134 0,-26 -5,-36 -6,-62 l -10,-342 c -91,0 -13,41 -127,74 -15,4 -105,-27 -163,-32 -27,-2 -96,2 -117,16 z"
   class="fil1" />
    <path
   style="fill:#99999a"
   id="path23"
   d="m 6597,4094 4,8 16,33 c 32,83 19,525 19,645 0,220 -3,439 -4,658 19,-7 10,-33 10,-78 V 4284 l -12,-133 c -9,-23 3,-8 -13,-16 4,-12 9,-9 2,-24 -10,-21 -7,-8 -18,-9 6,-12 10,-11 -4,-8 2,-23 -1,-11 -16,-32 l 227,-1 v 1118 c 0,87 -13,283 21,352 h 15 c -5,25 -1,24 21,21 -7,14 -9,12 5,5 -3,13 -13,14 10,5 -2,13 -13,14 10,5 -2,14 -14,11 11,11 -7,-10 6,-6 -11,-11 l -10,-5 -10,-5 -5,-5 -21,-21 c -44,-33 -29,-285 -29,-347 V 4060 c 170,-4 379,0 557,0 66,0 116,7 179,11 l 59,11 c -11,-13 7,-7 -24,-14 -19,-5 -18,-3 -35,3 1,-1 3,-4 4,-3 1,2 1,-5 18,-8 l 186,1 c 0,4 0,24 0,26 3,21 -1,11 11,21 l -7,-50 c -35,-8 -797,-1 -903,-1 -26,0 -275,-12 -297,5 12,18 17,7 34,32 z"
   class="fil3" />
    <path
   style="fill:#c9caca"
   id="path25"
   d="m 6285,4063 c 8,16 11,9 28,4 l 2,11 21,-7 c 0,21 -6,5 15,13 13,4 14,4 27,3 -2,13 -13,14 11,5 -3,13 -12,14 9,6 2,17 23,40 42,49 -8,19 -7,9 4,11 -2,9 -5,12 -4,23 2,30 0,12 11,18 -13,40 -5,958 -5,1151 0,122 -4,71 -10,158 29,-39 17,-258 17,-319 0,-110 0,-220 0,-331 0,-218 -5,-441 -2,-659 l -7,-41 -4,-11 c -19,-29 -15,-28 -42,-49 l -9,-6 -11,-5 -42,-16 -23,-4 -28,-4 -107,-3 -2,-41 h 1636 v 477 l -53,2 -5,-22 -24,-73 -4,-12 -6,-13 -4,-13 -31,-63 c 0,-11 3,-8 -8,-8 0,13 -4,11 8,8 -1,20 1,16 11,35 1,3 5,13 6,14 12,18 4,8 14,14 -6,17 -5,7 4,13 l -3,10 9,3 c -5,17 -4,8 4,12 -1,15 3,23 7,38 2,9 1,12 4,21 6,15 -1,10 13,14 l -4,21 66,4 V 4014 H 6172 v 52 c 34,0 81,6 113,-3 z"
   class="fil4" />
    <path
   style="fill:#99999a"
   id="path27"
   d="m 7320,4713 -5,7 -20,19 -6,5 -5,5 -8,7 -17,9 -10,5 -43,16 c -55,14 -109,13 -163,21 l 118,15 25,5 47,16 11,5 14,5 c -4,-14 6,-14 -14,-5 0,-14 10,-14 -11,-5 0,-13 8,-8 -16,-16 -15,-5 -15,-5 -31,0 2,-20 -4,-12 -25,-5 l 1,-11 h -28 c 14,-7 55,-15 73,-14 l -1,-11 21,6 c 1,-1 14,-8 14,-8 11,-10 4,1 8,-14 21,9 11,8 10,-5 l 13,5 4,-14 c 20,7 10,6 8,-7 13,7 12,9 5,-5 13,7 12,9 6,-5 22,5 23,2 20,-19 14,5 11,6 5,-7 19,17 10,66 10,93 0,16 0,31 0,47 1,28 6,33 -10,51 6,-12 9,-11 -4,-6 5,-11 7,-10 -4,-6 4,-12 5,-9 -6,-4 5,-13 6,-10 -6,-4 6,-14 8,-12 -6,-5 7,-14 9,-12 -5,-5 2,-14 12,-15 -8,-6 4,-14 6,-11 -8,-5 3,-13 12,-14 -9,-5 5,-13 8,-10 -6,-10 0,12 -4,10 6,10 l 9,5 c 0,8 -1,5 8,5 l 8,6 5,5 6,5 6,4 6,4 4,6 4,6 14,9 c 9,-36 9,-172 -1,-210 z"
   class="fil3" />
    <path
   style="fill:#f4f5f6"
   id="path29"
   d="m 7827,5463 c -7,5 -7,-7 -4,11 -11,10 -12,8 -11,26 -7,4 -8,-6 -4,11 l -8,3 2,11 c -8,5 -8,-5 -4,11 -9,4 -10,-6 -5,12 -10,2 -8,-10 -8,11 9,-6 4,10 8,-11 l 5,-12 4,-11 6,-14 4,-11 11,-26 4,-11 18,-44 c -16,15 -28,29 -45,44 -18,16 -33,26 -48,39 l -14,12 -10,6 -7,3 -9,6 -9,6 -10,5 -12,5 -10,4 -11,5 -50,17 -30,6 -26,4 -106,9 c 26,8 128,4 167,4 36,0 137,10 161,-6 l 5,-10 c -7,3 -7,-8 -5,10 h -198 c -23,0 -15,4 -24,-7 20,4 15,4 26,-4 21,2 19,5 30,-6 13,0 13,0 26,-3 7,-2 2,1 12,-4 11,-5 6,-2 12,-10 18,5 8,5 11,-5 17,5 7,4 10,-4 17,3 7,3 12,-5 17,3 6,3 10,-5 17,2 6,3 9,-6 18,4 8,4 9,-6 9,3 7,6 7,-3 18,2 7,2 10,-6 18,5 12,-4 14,-12 26,5 57,-45 79,-58 z"
   class="fil5" />
    <path
   style="fill:#c9caca"
   id="path31"
   d="m 4074,5072 -17,13 -26,16 -8,2 -9,6 -10,6 -19,11 -11,5 -22,10 -10,4 -12,5 -11,7 -34,14 -11,5 -13,7 -11,5 -11,5 -49,24 -10,6 c -10,0 -7,-3 -7,8 12,0 10,3 7,-8 20,5 9,5 10,-6 18,1 39,-7 49,-24 18,3 7,3 11,-5 17,3 6,3 11,-5 l 10,2 3,-9 c 18,6 8,5 11,-5 17,5 23,-1 34,-14 l 9,2 2,-9 c 19,6 9,5 12,-5 17,5 7,5 10,-4 15,2 14,-1 22,-10 17,3 6,3 11,-5 l 13,1 6,-12 c 19,4 8,4 10,-6 18,5 8,5 9,-6 9,4 7,7 8,-2 16,-3 16,-3 26,-16 22,-1 15,-8 17,-13 10,4 9,7 7,-4 17,28 6,91 6,127 0,44 0,88 0,132 15,-31 11,-220 6,-265 l -12,6 z"
   class="fil4" />
    <path
   style="fill:#c9caca"
   id="path33"
   d="m 5758,4380 c 5,27 16,47 25,71 16,46 3,40 53,40 v -120 c -4,-24 1,-5 -8,-15 l 3,128 -31,1 c -14,-35 -21,-76 -42,-105 z"
   class="fil4" />
    <path
   style="fill:#f4f5f6"
   id="path35"
   d="m 2342,4762 c 12,24 26,54 29,82 l -29,-5 z m -5,78 c 11,10 26,14 40,10 6,-19 -24,-83 -32,-96 -15,15 -11,7 -11,37 0,18 -1,34 3,49 z"
   class="fil5" />
    <path
   style="fill:#787677"
   id="path37"
   d="m 2342,4839 29,5 c -3,-28 -17,-58 -29,-82 z"
   class="fil2" />
   </g>
   <path
   style="fill:#000000;fill-rule:nonzero"
   id="path41"
   d="m 1770,6022 -2,164 c -37,17 -76,26 -115,26 -55,0 -99,-17 -134,-51 -35,-34 -52,-79 -52,-134 0,-53 18,-97 53,-132 35,-35 80,-53 133,-53 39,0 75,9 109,25 l -17,35 c -26,-15 -57,-23 -92,-23 -40,0 -74,15 -100,44 -26,28 -39,63 -39,104 0,41 13,76 39,104 26,29 60,44 100,44 25,0 49,-5 71,-15 l 2,-138 z m 165,-77 -12,40 c -7,-2 -12,-3 -16,-3 -11,0 -24,7 -40,21 -17,13 -25,25 -26,34 0,0 0,56 -2,168 h -40 l 2,-256 h 41 v 50 l 1,1 c 6,-16 15,-29 27,-40 13,-12 28,-18 43,-18 8,0 16,1 22,3 z m 214,126 h -169 v 9 c 0,28 5,50 14,68 13,22 32,33 57,33 21,0 45,-12 72,-37 l 20,22 c -30,30 -62,46 -96,46 -37,0 -66,-14 -86,-41 -17,-24 -25,-55 -25,-94 0,-35 10,-66 31,-92 22,-29 51,-43 85,-43 65,0 97,43 97,129 z m -40,-28 c 0,-20 -4,-36 -13,-49 -10,-14 -25,-22 -44,-22 -18,0 -33,8 -46,23 -12,13 -19,30 -23,48 z m 279,150 c -16,13 -32,19 -48,19 -11,0 -20,-5 -26,-14 -7,-8 -10,-18 -11,-29 -23,29 -48,43 -76,43 -22,0 -40,-7 -54,-21 -13,-13 -20,-31 -20,-53 0,-32 18,-56 54,-72 25,-12 57,-18 95,-19 v -33 c 1,-12 -3,-21 -10,-28 -7,-7 -16,-10 -28,-10 -18,0 -43,12 -73,35 l -17,-26 c 24,-16 40,-26 48,-30 18,-9 36,-13 55,-13 20,0 36,5 47,17 11,11 17,27 17,47 0,16 -1,39 -2,69 -1,31 -2,54 -2,70 0,24 6,36 18,36 6,0 13,-3 21,-9 z m -86,-122 c -33,4 -56,9 -69,15 -26,11 -39,28 -39,52 0,29 15,43 45,43 20,0 40,-12 60,-37 z m 242,119 c -22,14 -43,22 -64,22 -37,0 -56,-28 -56,-83 0,-7 1,-17 1,-30 1,-13 1,-22 1,-26 l 2,-93 h -44 v -31 h 44 v -95 h 41 v 95 h 69 v 31 h -69 c -2,105 -2,160 -2,165 0,22 7,33 23,33 11,0 25,-5 41,-15 z m 344,15 h -186 l 3,-356 h 181 v 37 h -139 v 121 h 134 v 37 h -134 v 124 h 141 z m 266,-386 -5,386 h -41 v -35 0 c -7,13 -18,24 -32,31 -14,7 -29,11 -45,11 -33,0 -60,-15 -78,-44 -16,-24 -24,-54 -24,-89 0,-34 11,-65 31,-92 23,-30 51,-45 83,-45 14,0 26,3 37,8 13,6 23,15 28,25 h 2 l 2,-156 z m -44,198 c -16,-28 -36,-41 -61,-41 -24,0 -43,11 -57,34 -13,20 -19,42 -19,67 0,26 5,48 14,66 12,23 30,35 53,35 11,0 24,-5 41,-16 18,-10 27,-21 27,-31 z m 301,-68 -2,256 h -41 l 2,-42 h -2 c -9,15 -22,26 -37,35 -15,9 -32,14 -48,14 -51,0 -77,-26 -77,-78 0,4 0,-58 1,-185 h 41 c -1,115 -1,177 -1,185 0,27 15,41 46,41 25,0 50,-16 75,-48 l 2,-178 z m 236,36 -26,20 c -16,-19 -34,-29 -55,-29 -25,0 -45,12 -59,37 -11,21 -17,45 -17,72 0,24 6,45 19,63 14,20 33,30 57,30 22,0 41,-11 57,-33 l 21,24 c -23,29 -52,43 -85,43 -36,0 -65,-14 -85,-42 -18,-25 -28,-56 -28,-93 0,-35 11,-66 33,-92 22,-29 51,-43 86,-43 33,0 61,14 82,43 z m 238,208 c -15,13 -31,19 -47,19 -11,0 -20,-5 -27,-14 -6,-8 -10,-18 -11,-29 -22,29 -48,43 -76,43 -22,0 -40,-7 -53,-21 -13,-13 -20,-31 -20,-53 0,-32 18,-56 53,-72 26,-12 58,-18 96,-19 v -33 c 0,-12 -3,-21 -10,-28 -7,-7 -17,-10 -29,-10 -18,0 -42,12 -73,35 l -17,-26 c 24,-16 41,-26 49,-30 17,-9 36,-13 55,-13 20,0 36,5 47,17 11,11 17,27 17,47 0,16 -1,39 -2,69 -2,31 -3,54 -3,70 0,24 7,36 19,36 6,0 13,-3 21,-9 z m -85,-122 c -33,4 -56,9 -70,15 -26,11 -38,28 -38,52 0,29 15,43 45,43 19,0 39,-12 60,-37 z m 241,119 c -22,14 -43,22 -63,22 -37,0 -56,-28 -56,-83 0,-7 0,-17 1,-30 1,-13 1,-22 1,-26 l 1,-93 h -43 v -31 h 43 v -95 h 41 v 95 h 69 v 31 h -69 c -1,105 -2,160 -2,165 0,22 8,33 23,33 12,0 26,-5 41,-15 z m 69,-294 h -44 v -47 h 44 z m 0,53 -4,256 h -40 l 2,-256 z m 279,128 c 0,37 -11,68 -33,94 -24,27 -54,41 -90,41 -39,0 -69,-13 -90,-39 -19,-25 -29,-56 -29,-96 0,-37 11,-69 33,-94 24,-28 54,-41 91,-41 38,0 68,13 89,39 19,25 29,56 29,96 z m -44,0 c 0,-28 -5,-51 -16,-70 -13,-23 -33,-35 -59,-35 -26,0 -46,12 -60,35 -13,20 -19,43 -19,70 0,28 5,51 16,70 13,23 33,34 59,34 25,0 45,-11 60,-34 13,-19 19,-43 19,-70 z m 291,-58 c 0,-3 -1,59 -2,186 h -41 c 1,-116 2,-177 2,-186 0,-27 -16,-40 -46,-40 -25,0 -50,16 -76,47 l -2,179 h -41 l 2,-256 h 41 l -2,41 h 1 c 10,-14 22,-26 38,-35 15,-9 32,-13 48,-13 52,0 78,26 78,77 z m 316,-170 -3,249 c 0,76 -42,114 -127,114 v -37 c 30,0 52,-7 64,-19 13,-13 20,-34 20,-63 l 2,-244 z m 250,100 -2,256 h -41 l 2,-42 h -2 c -9,15 -22,26 -37,35 -15,9 -32,14 -48,14 -51,0 -77,-26 -77,-78 0,4 0,-58 1,-185 h 41 c -1,115 -2,177 -2,185 0,27 16,41 47,41 25,0 50,-16 75,-48 l 2,-178 z m 203,14 -18,27 c -21,-12 -37,-18 -48,-18 -34,0 -51,15 -51,43 0,15 10,27 31,36 18,9 37,18 56,26 20,14 30,33 30,57 0,23 -8,41 -24,56 -17,14 -37,22 -59,22 -28,0 -54,-9 -80,-25 l 18,-28 c 21,15 40,22 55,22 13,0 25,-3 35,-11 10,-7 15,-17 15,-30 0,-17 -10,-31 -31,-41 -19,-9 -37,-17 -56,-26 -20,-12 -31,-31 -31,-55 0,-23 9,-42 26,-56 15,-14 35,-20 59,-20 28,0 52,7 73,21 z m 177,227 c -22,14 -43,22 -63,22 -38,0 -56,-28 -56,-83 0,-7 0,-17 1,-30 0,-13 1,-22 1,-26 l 1,-93 h -43 v -31 h 43 v -95 h 41 v 95 h 69 v 31 h -69 c -1,105 -2,160 -2,165 0,22 8,33 23,33 12,0 25,-5 41,-15 z m 210,-294 h -44 v -47 h 44 z m 0,53 -3,256 h -41 l 2,-256 z m 253,70 c 0,-3 -1,59 -2,186 h -40 c 1,-116 1,-177 1,-186 0,-27 -15,-40 -46,-40 -25,0 -50,16 -76,47 l -2,179 h -41 l 2,-256 h 41 l -2,41 h 1 c 10,-14 23,-26 38,-35 16,-9 32,-13 48,-13 52,0 78,26 78,77 z m 464,-148 -18,35 c -25,-18 -56,-27 -91,-27 -41,0 -74,15 -100,44 -27,28 -40,63 -40,104 0,41 13,76 40,104 26,29 59,44 100,44 28,0 59,-10 90,-28 l 18,31 c -38,22 -74,34 -108,34 -55,0 -100,-17 -134,-51 -35,-34 -53,-79 -53,-134 0,-53 18,-97 54,-132 35,-35 80,-53 133,-53 37,0 74,10 109,29 z m 230,322 c -16,13 -31,19 -47,19 -12,0 -21,-5 -27,-14 -6,-8 -10,-18 -11,-29 -23,29 -48,43 -76,43 -22,0 -40,-7 -53,-21 -14,-13 -20,-31 -20,-53 0,-32 17,-56 53,-72 25,-12 57,-18 96,-19 v -33 c 0,-12 -4,-21 -11,-28 -7,-7 -16,-10 -28,-10 -18,0 -43,12 -73,35 l -17,-26 c 24,-16 40,-26 48,-30 18,-9 36,-13 56,-13 20,0 35,5 46,17 11,11 17,27 17,47 0,16 -1,39 -2,69 -1,31 -2,54 -2,70 0,24 6,36 18,36 6,0 13,-3 22,-9 z m -85,-122 c -34,4 -57,9 -70,15 -26,11 -39,28 -39,52 0,29 15,43 45,43 20,0 40,-12 60,-37 z m 299,39 c 0,31 -11,57 -34,75 -21,18 -47,27 -80,27 -35,0 -67,-10 -97,-28 l 20,-32 c 25,17 49,26 74,26 20,0 37,-6 50,-18 13,-12 20,-27 20,-47 0,-24 -13,-44 -40,-58 -25,-13 -50,-26 -75,-38 -27,-19 -40,-46 -40,-81 0,-29 11,-52 33,-69 20,-17 44,-25 74,-25 32,0 63,9 93,28 l -17,32 c -25,-17 -50,-26 -74,-26 -18,0 -34,6 -46,18 -13,11 -19,26 -19,44 0,21 14,39 41,55 25,13 50,27 76,40 27,20 41,45 41,77 z m 210,95 h -186 l 3,-356 h 181 v 37 h -139 v 121 h 135 v 37 h -135 v 124 h 141 z"
   class="fil6" />
  </g>
 </g>
</svg>